<svg width="48" height="48" viewBox="0 0 48 48" fill="none" xmlns="http://www.w3.org/2000/svg">
<rect width="48" height="48" rx="4" fill="#328DF6"/>
<path d="M19 24H22V28H19V24Z" stroke="#E8E9EE" stroke-width="1.4" stroke-linecap="round" stroke-linejoin="round"/>
<path d="M22 18H16C15.7348 18 15.4804 18.1054 15.2929 18.2929C15.1054 18.4804 15 18.7348 15 19V31C15 31.2652 15.1054 31.5196 15.2929 31.7071C15.4804 31.8946 15.7348 32 16 32H32C32.2652 32 32.5196 31.8946 32.7071 31.7071C32.8946 31.5196 33 31.2652 33 31V19C33 18.7348 32.8946 18.4804 32.7071 18.2929C32.5196 18.1054 32.2652 18 32 18H26" stroke="#E8E9EE" stroke-width="1.4" stroke-linecap="round" stroke-linejoin="round"/>
<path d="M25 15H23C22.4477 15 22 15.4477 22 16V19C22 19.5523 22.4477 20 23 20H25C25.5523 20 26 19.5523 26 19V16C26 15.4477 25.5523 15 25 15Z" stroke="#E8E9EE" stroke-width="1.4" stroke-linecap="round" stroke-linejoin="round"/>
<path d="M26 28H28" stroke="#E8E9EE" stroke-width="1.4" stroke-linecap="round" stroke-linejoin="round"/>
<path d="M26 24H30" stroke="#E8E9EE" stroke-width="1.4" stroke-linecap="round" stroke-linejoin="round"/>
</svg>
